<?xml version="1.0" encoding="UTF-8"?>
<svg xmlns="http://www.w3.org/2000/svg" width="1121" height="174" viewBox="0 0 1121 174" role="img" aria-label="Plotter Hub logo">
  <title>Plotter Hub logo</title>
  <desc>Vector trace of the Plotter Hub PNG logo. Yellow elements use #FEC600 and cyan elements use #00B7FE.</desc>
  <g fill-rule="evenodd" clip-rule="evenodd">
    <path fill="#FEC600" d="M 623.00 60.00 L 601.00 60.00 L 597.00 61.00 L 589.00 65.00 L 586.00 67.00 L 584.00 69.00 L 584.00 70.00 L 581.00 73.00 L 579.00 77.00 L 577.00 85.00 L 577.00 137.00 L 579.00 139.00 L 592.00 139.00 L 594.00 137.00 L 594.00 89.00 L 595.00 86.00 L 597.00 82.00 L 601.00 78.00 L 606.00 76.00 L 625.00 75.00 L 625.00 62.00 Z
M 510.00 61.00 L 505.00 63.00 L 499.00 67.00 L 492.00 74.00 L 487.00 83.00 L 485.00 90.00 L 485.00 110.00 L 488.00 119.00 L 491.00 124.00 L 497.00 131.00 L 504.00 136.00 L 508.00 138.00 L 515.00 140.00 L 521.00 141.00 L 530.00 141.00 L 541.00 139.00 L 552.00 134.00 L 557.00 130.00 L 559.00 127.00 L 558.00 125.00 L 549.00 116.00 L 547.00 116.00 L 540.00 122.00 L 532.00 125.00 L 519.00 125.00 L 516.00 124.00 L 509.00 120.00 L 504.00 114.00 L 503.00 112.00 L 503.00 109.00 L 502.00 108.00 L 503.00 105.00 L 561.00 105.00 L 562.00 103.00 L 562.00 89.00 L 558.00 77.00 L 556.00 74.00 L 548.00 66.00 L 541.00 62.00 L 529.00 59.00 L 519.00 59.00 Z
M 503.00 88.00 L 505.00 84.00 L 511.00 78.00 L 517.00 75.00 L 521.00 75.00 L 522.00 74.00 L 525.00 74.00 L 531.00 75.00 L 536.00 77.00 L 539.00 79.00 L 542.00 82.00 L 544.00 85.00 L 545.00 88.00 L 544.00 92.00 L 535.00 93.00 L 530.00 93.00 L 503.00 91.00 Z
M 306.00 59.00 L 297.00 61.00 L 288.00 65.00 L 285.00 67.00 L 278.00 74.00 L 273.00 82.00 L 270.00 92.00 L 270.00 107.00 L 271.00 112.00 L 276.00 123.00 L 279.00 127.00 L 284.00 132.00 L 290.00 136.00 L 297.00 139.00 L 307.00 141.00 L 315.00 141.00 L 325.00 139.00 L 330.00 137.00 L 339.00 131.00 L 343.00 127.00 L 347.00 121.00 L 349.00 117.00 L 352.00 107.00 L 352.00 93.00 L 349.00 83.00 L 347.00 79.00 L 342.00 72.00 L 338.00 68.00 L 334.00 65.00 L 325.00 61.00 L 316.00 59.00 Z
M 309.00 75.00 L 312.00 75.00 L 313.00 76.00 L 317.00 76.00 L 320.00 77.00 L 324.00 79.00 L 331.00 86.00 L 333.00 89.00 L 335.00 96.00 L 335.00 104.00 L 334.00 108.00 L 332.00 112.00 L 330.00 115.00 L 325.00 120.00 L 319.00 123.00 L 316.00 124.00 L 306.00 124.00 L 300.00 122.00 L 297.00 120.00 L 291.00 114.00 L 288.00 108.00 L 287.00 104.00 L 287.00 96.00 L 288.00 92.00 L 291.00 86.00 L 298.00 79.00 L 302.00 77.00 Z
M 437.00 37.00 L 435.00 39.00 L 434.00 61.00 L 423.00 62.00 L 422.00 64.00 L 422.00 74.00 L 424.00 76.00 L 435.00 77.00 L 435.00 119.00 L 437.00 126.00 L 440.00 131.00 L 443.00 134.00 L 450.00 138.00 L 454.00 139.00 L 472.00 139.00 L 474.00 137.00 L 474.00 125.00 L 472.00 123.00 L 458.00 123.00 L 456.00 121.00 L 455.00 121.00 L 454.00 120.00 L 452.00 116.00 L 453.00 76.00 L 472.00 76.00 L 474.00 74.00 L 474.00 63.00 L 472.00 61.00 L 452.00 60.00 L 452.00 39.00 L 450.00 37.00 Z
M 375.00 37.00 L 373.00 39.00 L 372.00 61.00 L 362.00 61.00 L 360.00 63.00 L 360.00 74.00 L 362.00 76.00 L 373.00 77.00 L 373.00 119.00 L 374.00 123.00 L 377.00 129.00 L 384.00 136.00 L 392.00 139.00 L 412.00 138.00 L 413.00 126.00 L 412.00 124.00 L 410.00 123.00 L 397.00 123.00 L 395.00 122.00 L 391.00 118.00 L 390.00 116.00 L 391.00 76.00 L 412.00 75.00 L 413.00 73.00 L 413.00 68.00 L 411.00 61.00 L 390.00 60.00 L 390.00 39.00 L 388.00 37.00 Z
M 239.00 29.00 L 237.00 30.00 L 236.00 42.00 L 236.00 73.00 L 237.00 86.00 L 237.00 114.00 L 236.00 125.00 L 236.00 133.00 L 237.00 137.00 L 239.00 139.00 L 252.00 139.00 L 254.00 137.00 L 254.00 31.00 L 252.00 29.00 Z
M 201.00 31.00 L 193.00 29.00 L 143.00 29.00 L 141.00 31.00 L 140.00 45.00 L 141.00 59.00 L 141.00 123.00 L 140.00 135.00 L 143.00 139.00 L 156.00 139.00 L 158.00 137.00 L 159.00 100.00 L 195.00 100.00 L 201.00 98.00 L 210.00 93.00 L 217.00 86.00 L 220.00 80.00 L 222.00 74.00 L 223.00 68.00 L 223.00 61.00 L 222.00 55.00 L 220.00 49.00 L 215.00 41.00 L 209.00 35.00 Z
M 159.00 46.00 L 163.00 45.00 L 166.00 45.00 L 172.00 46.00 L 186.00 45.00 L 192.00 46.00 L 196.00 48.00 L 199.00 50.00 L 201.00 52.00 L 204.00 57.00 L 205.00 61.00 L 205.00 68.00 L 203.00 74.00 L 200.00 77.00 L 200.00 78.00 L 198.00 80.00 L 193.00 83.00 L 188.00 84.00 L 158.00 83.00 Z
M 24.00 29.00 L 21.00 30.00 L 17.00 33.00 L 15.00 36.00 L 14.00 39.00 L 14.00 100.00 L 17.00 107.00 L 19.00 109.00 L 22.00 111.00 L 28.00 113.00 L 28.00 130.00 L 37.00 145.00 L 42.00 151.00 L 43.00 154.00 L 45.00 156.00 L 45.00 157.00 L 48.00 159.00 L 51.00 159.00 L 54.00 157.00 L 54.00 156.00 L 56.00 154.00 L 57.00 151.00 L 60.00 148.00 L 61.00 145.00 L 66.00 139.00 L 71.00 130.00 L 71.00 114.00 L 73.00 112.00 L 75.00 111.00 L 77.00 111.00 L 81.00 108.00 L 85.00 101.00 L 85.00 39.00 L 83.00 35.00 L 79.00 31.00 L 75.00 29.00 Z
M 38.00 113.00 L 62.00 114.00 L 62.00 128.00 L 57.00 136.00 L 51.00 144.00 L 51.00 145.00 L 48.00 145.00 L 48.00 144.00 L 44.00 139.00 L 44.00 138.00 L 38.00 130.00 L 37.00 128.00 Z
M 23.00 98.00 L 24.00 93.00 L 76.00 94.00 L 76.00 99.00 L 72.00 103.00 L 70.00 104.00 L 29.00 104.00 L 27.00 103.00 L 24.00 100.00 Z
M 23.00 41.00 L 26.00 38.00 L 30.00 37.00 L 70.00 37.00 L 73.00 38.00 L 76.00 41.00 L 75.00 84.00 L 23.00 83.00 Z"/>
    <path fill="#00B7FE" d="M 780.00 61.00 L 778.00 63.00 L 778.00 115.00 L 780.00 122.00 L 784.00 129.00 L 792.00 136.00 L 798.00 139.00 L 807.00 141.00 L 818.00 140.00 L 825.00 137.00 L 829.00 134.00 L 832.00 135.00 L 832.00 138.00 L 834.00 139.00 L 846.00 139.00 L 848.00 138.00 L 849.00 135.00 L 848.00 63.00 L 846.00 61.00 L 833.00 61.00 L 831.00 63.00 L 831.00 111.00 L 829.00 116.00 L 824.00 121.00 L 820.00 123.00 L 816.00 124.00 L 808.00 124.00 L 802.00 121.00 L 797.00 116.00 L 795.00 111.00 L 795.00 63.00 L 793.00 61.00 Z
M 867.00 29.00 L 864.00 32.00 L 864.00 102.00 L 865.00 111.00 L 867.00 117.00 L 870.00 123.00 L 874.00 129.00 L 880.00 134.00 L 887.00 138.00 L 893.00 140.00 L 899.00 141.00 L 909.00 141.00 L 920.00 138.00 L 926.00 135.00 L 930.00 131.00 L 931.00 131.00 L 937.00 124.00 L 940.00 119.00 L 943.00 110.00 L 944.00 98.00 L 943.00 90.00 L 941.00 84.00 L 937.00 76.00 L 935.00 73.00 L 929.00 67.00 L 926.00 65.00 L 918.00 61.00 L 909.00 59.00 L 901.00 59.00 L 896.00 60.00 L 882.00 66.00 L 882.00 31.00 L 880.00 29.00 Z
M 901.00 76.00 L 906.00 76.00 L 911.00 77.00 L 915.00 79.00 L 919.00 82.00 L 920.00 83.00 L 920.00 84.00 L 924.00 89.00 L 926.00 96.00 L 926.00 104.00 L 925.00 109.00 L 923.00 113.00 L 921.00 116.00 L 917.00 120.00 L 912.00 123.00 L 908.00 124.00 L 899.00 124.00 L 896.00 123.00 L 892.00 121.00 L 886.00 115.00 L 884.00 112.00 L 882.00 106.00 L 882.00 94.00 L 883.00 91.00 L 886.00 85.00 L 891.00 80.00 L 897.00 77.00 Z
M 676.00 29.00 L 674.00 31.00 L 674.00 137.00 L 676.00 139.00 L 690.00 139.00 L 692.00 137.00 L 693.00 92.00 L 743.00 93.00 L 743.00 136.00 L 744.00 138.00 L 759.00 139.00 L 761.00 137.00 L 761.00 31.00 L 759.00 29.00 L 744.00 30.00 L 743.00 32.00 L 742.00 75.00 L 692.00 74.00 L 692.00 31.00 L 690.00 29.00 Z
M 1040.00 14.00 L 1035.00 16.00 L 1031.00 20.00 L 1028.00 27.00 L 1028.00 30.00 L 1031.00 37.00 L 1037.00 42.00 L 1037.00 47.00 L 1036.00 48.00 L 1035.00 55.00 L 1035.00 63.00 L 1033.00 68.00 L 1025.00 69.00 L 1020.00 72.00 L 1016.00 77.00 L 1013.00 78.00 L 995.00 70.00 L 991.00 58.00 L 984.00 53.00 L 975.00 53.00 L 968.00 58.00 L 966.00 62.00 L 966.00 71.00 L 971.00 78.00 L 974.00 80.00 L 982.00 81.00 L 987.00 79.00 L 990.00 76.00 L 993.00 76.00 L 1011.00 84.00 L 1012.00 96.00 L 1015.00 102.00 L 1015.00 105.00 L 998.00 123.00 L 986.00 122.00 L 983.00 123.00 L 977.00 129.00 L 975.00 137.00 L 977.00 143.00 L 982.00 148.00 L 987.00 150.00 L 996.00 149.00 L 1002.00 144.00 L 1004.00 139.00 L 1004.00 133.00 L 1002.00 128.00 L 1022.00 109.00 L 1027.00 112.00 L 1031.00 112.00 L 1032.00 113.00 L 1042.00 111.00 L 1056.00 133.00 L 1056.00 135.00 L 1053.00 139.00 L 1052.00 143.00 L 1052.00 147.00 L 1054.00 152.00 L 1061.00 158.00 L 1069.00 159.00 L 1074.00 157.00 L 1079.00 152.00 L 1080.00 150.00 L 1080.00 140.00 L 1075.00 133.00 L 1071.00 131.00 L 1061.00 130.00 L 1051.00 113.00 L 1049.00 107.00 L 1054.00 102.00 L 1057.00 95.00 L 1058.00 89.00 L 1074.00 86.00 L 1079.00 86.00 L 1082.00 90.00 L 1087.00 93.00 L 1096.00 93.00 L 1099.00 92.00 L 1104.00 87.00 L 1106.00 82.00 L 1106.00 77.00 L 1104.00 72.00 L 1099.00 67.00 L 1097.00 66.00 L 1087.00 66.00 L 1080.00 71.00 L 1077.00 79.00 L 1057.00 83.00 L 1049.00 72.00 L 1041.00 68.00 L 1043.00 44.00 L 1045.00 42.00 L 1051.00 40.00 L 1054.00 37.00 L 1056.00 33.00 L 1056.00 24.00 L 1055.00 21.00 L 1050.00 16.00 L 1044.00 14.00 Z
M 1064.00 137.00 L 1068.00 137.00 L 1070.00 138.00 L 1073.00 141.00 L 1074.00 143.00 L 1074.00 147.00 L 1069.00 152.00 L 1064.00 152.00 L 1059.00 147.00 L 1059.00 142.00 Z
M 989.00 128.00 L 991.00 128.00 L 993.00 129.00 L 996.00 132.00 L 997.00 134.00 L 997.00 139.00 L 993.00 143.00 L 991.00 144.00 L 989.00 144.00 L 985.00 142.00 L 983.00 140.00 L 982.00 138.00 L 982.00 134.00 L 983.00 132.00 L 985.00 130.00 Z
M 1031.00 74.00 L 1039.00 74.00 L 1043.00 76.00 L 1048.00 81.00 L 1050.00 85.00 L 1051.00 89.00 L 1051.00 92.00 L 1050.00 95.00 L 1048.00 99.00 L 1044.00 103.00 L 1041.00 105.00 L 1038.00 106.00 L 1030.00 106.00 L 1024.00 103.00 L 1021.00 100.00 L 1019.00 97.00 L 1018.00 94.00 L 1018.00 87.00 L 1020.00 82.00 L 1026.00 76.00 Z
M 1090.00 72.00 L 1093.00 72.00 L 1095.00 73.00 L 1099.00 77.00 L 1099.00 82.00 L 1098.00 84.00 L 1096.00 86.00 L 1094.00 87.00 L 1090.00 87.00 L 1088.00 86.00 L 1085.00 83.00 L 1085.00 76.00 L 1088.00 73.00 Z
M 978.00 59.00 L 981.00 59.00 L 983.00 60.00 L 986.00 63.00 L 987.00 65.00 L 987.00 68.00 L 985.00 72.00 L 984.00 73.00 L 982.00 74.00 L 977.00 74.00 L 973.00 70.00 L 972.00 68.00 L 972.00 65.00 L 973.00 63.00 L 976.00 60.00 Z
M 1040.00 21.00 L 1045.00 21.00 L 1047.00 22.00 L 1048.00 23.00 L 1048.00 24.00 L 1050.00 26.00 L 1050.00 30.00 L 1049.00 32.00 L 1046.00 35.00 L 1044.00 36.00 L 1041.00 36.00 L 1039.00 35.00 L 1036.00 32.00 L 1035.00 30.00 L 1035.00 27.00 L 1036.00 25.00 Z"/>
  </g>
</svg>
